<?xml version="1.0" encoding="UTF-8" standalone="no"?>
<!DOCTYPE svg PUBLIC "-//W3C//DTD SVG 1.1//EN" "http://www.w3.org/Graphics/SVG/1.1/DTD/svg11.dtd">
<svg version="1.1" xmlns="http://www.w3.org/2000/svg" xmlns:xlink="http://www.w3.org/1999/xlink" preserveAspectRatio="xMidYMid meet" viewBox="164.84373484144635 74.07696973908327 312.3125303171072 356.38177621608105" width="308.31" height="352.38"><defs><path d="M245.02 260.33C240.66 257.68 235.18 257.68 230.82 260.33C224.97 263.88 178.17 292.36 172.32 295.92C168.29 298.36 165.84 302.72 165.84 307.34C165.84 314.45 165.84 371.35 165.84 378.46C165.84 383.15 168.29 387.44 172.32 389.89C178.17 393.45 224.97 421.92 230.82 425.48C233 426.8 238.75 429.18 245.02 425.48C250.87 421.92 297.68 393.45 303.53 389.89C307.56 387.44 310 383.09 310 378.46C310 371.35 310 314.45 310 307.34C310 302.65 307.56 298.36 303.53 295.92C291.83 288.8 250.87 263.88 245.02 260.33ZM237.89 398.27L192.92 370.94L192.92 314.87L237.89 287.53L282.86 314.87L282.86 370.94L237.89 398.27Z" id="e29wotGK2C"></path><path d="M328.75 77.52C323.38 74.26 316.62 74.26 311.25 77.52C304.04 81.9 246.37 116.99 239.16 121.38C234.2 124.39 231.19 129.76 231.19 135.45C231.19 144.22 231.19 214.32 231.19 223.09C231.19 228.86 234.2 234.15 239.16 237.16C246.37 241.55 304.04 276.63 311.25 281.02C313.94 282.65 321.02 285.58 328.75 281.02C335.96 276.63 393.63 241.55 400.84 237.16C405.8 234.15 408.81 228.78 408.81 223.09C408.81 214.32 408.81 144.22 408.81 135.45C408.81 129.68 405.8 124.39 400.84 121.38C386.42 112.6 335.96 81.9 328.75 77.52ZM320.04 247.5L264.63 213.81L264.63 144.73L320.04 111.04L375.45 144.73L375.45 213.81L320.04 247.5Z" id="af0TYNSnB"></path><path d="M409.18 260.33C404.82 257.68 399.34 257.68 394.98 260.33C389.13 263.88 342.32 292.36 336.47 295.92C332.44 298.36 330 302.72 330 307.34C330 314.45 330 371.35 330 378.46C330 383.15 332.44 387.44 336.47 389.89C342.32 393.45 389.13 421.92 394.98 425.48C397.16 426.8 402.9 429.18 409.18 425.48C415.03 421.92 461.83 393.45 467.68 389.89C471.71 387.44 474.16 383.09 474.16 378.46C474.16 371.35 474.16 314.45 474.16 307.34C474.16 302.65 471.71 298.36 467.68 295.92C455.98 288.8 415.03 263.88 409.18 260.33ZM402.05 398.27L357.07 370.94L357.07 314.87L402.05 287.53L447.02 314.87L447.02 370.94L402.05 398.27Z" id="a2qWDnZKfG"></path></defs><g><g><use xlink:href="#e29wotGK2C" opacity="1" fill="#000000" fill-opacity="1"></use><g><use xlink:href="#e29wotGK2C" opacity="1" fill-opacity="0" stroke="#000000" stroke-width="1" stroke-opacity="0"></use></g></g><g><use xlink:href="#af0TYNSnB" opacity="1" fill="#000000" fill-opacity="1"></use><g><use xlink:href="#af0TYNSnB" opacity="1" fill-opacity="0" stroke="#000000" stroke-width="1" stroke-opacity="0"></use></g></g><g><use xlink:href="#a2qWDnZKfG" opacity="1" fill="#000000" fill-opacity="1"></use><g><use xlink:href="#a2qWDnZKfG" opacity="1" fill-opacity="0" stroke="#000000" stroke-width="1" stroke-opacity="0"></use></g></g></g></svg>