<?xml version="1.0" encoding="UTF-8" standalone="no"?>
<!DOCTYPE svg PUBLIC "-//W3C//DTD SVG 1.1//EN" "http://www.w3.org/Graphics/SVG/1.1/DTD/svg11.dtd">
<svg version="1.1" xmlns="http://www.w3.org/2000/svg" xmlns:xlink="http://www.w3.org/1999/xlink" preserveAspectRatio="xMidYMid meet" viewBox="157.21935045522577 126.56967806566331 308.062600061482 351.51782042388925" width="304.06" height="347.52"><defs><path d="M229.3 317.52L169.09 354.61L169.09 428.79L229.3 465.88L289.52 428.79L289.52 354.61L229.3 317.52Z" id="cPrTRJYbm"></path><path d="M391.2 317.52L451.41 354.61L451.41 428.79L391.2 465.88L330.98 428.79L330.98 354.61L391.2 317.52Z" id="bq8uSOLh1"></path><path d="M301.62 129.98C294.51 134.3 237.64 168.91 230.53 173.24C225.64 176.2 222.67 181.5 222.67 187.11C222.67 195.76 222.67 264.89 222.67 273.54C222.67 279.23 225.64 284.45 230.53 287.42C237.64 291.75 294.51 326.34 301.62 330.67C304.27 332.28 311.26 335.17 318.88 330.67C325.99 326.34 382.86 291.75 389.97 287.42C394.87 284.45 397.83 279.15 397.83 273.54C397.83 264.89 397.83 195.76 397.83 187.11C397.83 181.42 394.87 176.2 389.97 173.24C375.75 164.58 325.99 134.3 318.88 129.98C313.58 126.77 306.92 126.77 301.62 129.98ZM255.65 264.39L255.65 196.26L310.29 163.04L364.93 196.26L364.93 264.39L310.29 297.61L255.65 264.39Z" id="c4GAT9GjXn"></path><path d="M222.3 310.27C216.53 313.77 170.38 341.85 164.61 345.37C160.64 347.77 158.22 352.07 158.22 356.63C158.22 363.64 158.22 419.75 158.22 426.77C158.22 431.39 160.64 435.62 164.61 438.04C170.38 441.55 216.53 469.63 222.3 473.14C224.45 474.44 230.12 476.79 236.31 473.14C242.08 469.63 288.24 441.55 294.01 438.04C297.98 435.62 300.39 431.33 300.39 426.77C300.39 419.75 300.39 363.64 300.39 356.63C300.39 352 297.98 347.77 294.01 345.37C282.47 338.34 242.08 313.77 236.31 310.27C232.01 307.65 226.6 307.65 222.3 310.27ZM184.93 419.35L184.93 364.05L229.27 337.09L273.62 364.05L273.62 419.35L229.27 446.3L184.93 419.35Z" id="f39jpeeSOa"></path><path d="M384.2 310.27C378.43 313.77 332.26 341.85 326.49 345.37C322.52 347.77 320.11 352.07 320.11 356.63C320.11 363.64 320.11 419.75 320.11 426.77C320.11 431.39 322.52 435.62 326.49 438.04C332.26 441.55 378.43 469.63 384.2 473.14C386.35 474.44 392.01 476.79 398.2 473.14C403.97 469.63 450.12 441.55 455.89 438.04C459.87 435.62 462.28 431.33 462.28 426.77C462.28 419.75 462.28 363.64 462.28 356.63C462.28 352 459.87 347.77 455.89 345.37C444.35 338.34 403.97 313.77 398.2 310.27C393.9 307.65 388.5 307.65 384.2 310.27ZM346.81 419.35L346.81 364.05L391.17 337.09L435.52 364.05L435.52 419.35L391.17 446.3L346.81 419.35Z" id="b1aOzeVVO"></path><path d="M310.25 156.14L250.03 193.23L250.03 267.41L310.25 304.5L370.47 267.41L370.47 193.23L310.25 156.14Z" id="b1Tpo6uJ3W"></path></defs><g><g><use xlink:href="#cPrTRJYbm" opacity="1" fill="#3e6285" fill-opacity="1"></use></g><g><use xlink:href="#bq8uSOLh1" opacity="1" fill="#3e6285" fill-opacity="1"></use></g><g><use xlink:href="#c4GAT9GjXn" opacity="1" fill="#ffffff" fill-opacity="1"></use></g><g><use xlink:href="#f39jpeeSOa" opacity="1" fill="#ffffff" fill-opacity="1"></use></g><g><use xlink:href="#b1aOzeVVO" opacity="1" fill="#ffffff" fill-opacity="1"></use></g><g><use xlink:href="#b1Tpo6uJ3W" opacity="1" fill="#3e6285" fill-opacity="1"></use></g></g></svg>