<!-- Generated by IcoMoon.io -->
<svg version="1.1" xmlns="http://www.w3.org/2000/svg" width="768" height="768" viewBox="0 0 768 768">
<title></title>
<g id="icomoon-ignore">
</g>
<path d="M223.5 160.5h448.5v63h-448.5v-63zM223.5 415.5v-63h448.5v63h-448.5zM223.5 607.5v-63h448.5v63h-448.5zM127.5 528c27 0 48 22.5 48 48s-22.5 48-48 48-48-22.5-48-48 21-48 48-48zM127.5 144c27 0 48 21 48 48s-21 48-48 48-48-21-48-48 21-48 48-48zM127.5 336c27 0 48 21 48 48s-21 48-48 48-48-21-48-48 21-48 48-48z"></path>
</svg>
